<?xml version="1.0" encoding="UTF-8"?>
<svg id="Ebene_1" data-name="Ebene 1" xmlns="http://www.w3.org/2000/svg" xmlns:xlink="http://www.w3.org/1999/xlink" viewBox="0 0 56.38 74.78">
  <defs>
    <style>
      .cls-1 {
        fill: #36a9e1;
      }

      .cls-2 {
        fill: #1d1d1b;
        font-family: Neon80s, 'Neon 80s';
        font-size: 17px;
      }

      .cls-3 {
        fill: url(#blue_2);
        stroke: url(#blue_2-2);
        stroke-miterlimit: 10;
        stroke-width: 2px;
      }

      .cls-4 {
        letter-spacing: -.02em;
      }

      .cls-5 {
        letter-spacing: -.2em;
      }
    </style>
    <linearGradient id="blue_2" data-name="blue 2" x1="29.95" y1="37.47" x2="30.04" y2="37.47" gradientUnits="userSpaceOnUse">
      <stop offset="0" stop-color="#2b4c9c"/>
      <stop offset=".29" stop-color="#3c6bac"/>
      <stop offset=".91" stop-color="#69bbd7"/>
      <stop offset="1" stop-color="#71c8de"/>
    </linearGradient>
    <linearGradient id="blue_2-2" data-name="blue 2" x1="1.2" x2="46.68" xlink:href="#blue_2"/>
  </defs>
  <path class="cls-3" d="m3.08,33.44l12.71,4.78m0-.09l3.25-7.56m-.14.12l7.35,6.21m0,0l7.69,1.14m5.48-6.49l-5.48,6.49m-.21-.15l6.25,8.84m-13.73-9.83l2.24,7.35m0,0l11.48,2.48m-11.48-2.48l-11.31.64m0,0l-1.4-6.76m1.4,6.76l-3.32,6.07m14.63-6.71l3.99,6.13m7.35-3.6l5.13-8.87m-25.92-7.33l-5.25-6.59m-10.71,8.58c-.49,0-.88.4-.88.88s.4.88.88.88.88-.4.88-.88-.4-.88-.88-.88Zm10.71-9.46c-.49,0-.88.4-.88.88s.4.88.88.88.88-.4.88-.88-.4-.88-.88-.88Zm25.63,7.85c-.34,0-.61.27-.61.61s.27.61.61.61.61-.27.61-.61-.27-.61-.61-.61Zm5.54,6.23c-.4,0-.72.32-.72.72s.32.72.72.72.72-.32.72-.72-.32-.72-.72-.72Zm-29.17-.09c-.63,0-1.14.51-1.14,1.14s.51,1.14,1.14,1.14,1.14-.51,1.14-1.14-.51-1.14-1.14-1.14Zm3.11-7.28c-.49,0-.88.4-.88.88s.4.88.88.88.88-.4.88-.88-.4-.88-.88-.88Zm7.35,6.08c-.55,0-1,.45-1,1.01s.46,1.1,1,1.01c.74-.12,1-.45,1-1.01s-.45-1.01-1-1.01Zm7.57,1.28c-.49,0-.88.4-.88.88s.4.88.88.88.88-.4.88-.88-.4-.88-.88-.88Zm6.09,8.59c-.54,0-.98.44-.98.98s.44.98.98.98.98-.44.98-.98-.44-.98-.98-.98Zm-11.42-3.01c-.83,0-1.51.68-1.51,1.51s.68,1.51,1.51,1.51,1.51-.68,1.51-1.51-.68-1.51-1.51-1.51Zm3.99,6.76c-.49,0-.88.4-.88.88s.4.88.88.88.88-.4.88-.88-.4-.88-.88-.88Zm-18.62.58c-.49,0-.88.4-.88.88s.4.88.88.88.88-.4.88-.88-.4-.88-.88-.88Zm3.32-6.08c-.49,0-.89.4-.89.89s.4.89.89.89.89-.4.89-.89-.4-.89-.89-.89Z"/>
  <text class="cls-2" transform="translate(3.96 64.92)"><tspan class="cls-5" x="0" y="0">T</tspan><tspan x="6.63" y="0">o B</tspan><tspan class="cls-4" x="30.67" y="0">e</tspan><tspan x="39.39" y="0">.</tspan></text>
  <g>
    <path class="cls-1" d="m.03,68.36s-.03-.1-.03-.16c0-.11.04-.2.12-.28s.17-.12.28-.12.2.04.28.11c.04.04.06.08.09.13l1.63,4.02,1.15-2.3c.02-.05.05-.11.1-.15.08-.08.17-.11.27-.11s.2.04.28.11c.03.03.06.07.07.11l1.17,2.34,1.63-4.02s.05-.09.09-.13c.08-.08.17-.11.27-.11s.2.04.28.12.12.17.12.28c0,.06-.01.11-.03.16l-1.95,4.79c-.02.05-.05.1-.09.14-.08.08-.17.12-.28.12s-.2-.04-.27-.12c-.04-.04-.07-.08-.09-.13l-1.2-2.39-1.21,2.43s-.05.07-.07.1c-.08.08-.17.12-.28.12s-.2-.04-.27-.12c-.04-.04-.08-.09-.09-.14L.03,68.36Z"/>
    <path class="cls-1" d="m9.97,70.4c-.14-.07-.3-.1-.47-.1-.32,0-.59.11-.82.34s-.34.5-.34.82.11.59.34.82.5.34.82.34.59-.11.82-.34c0,0,0,0,0,0,.08-.08.17-.11.28-.11s.2.04.28.12.12.17.12.28-.04.2-.12.28c0,0,0,0,0,0-.38.38-.84.57-1.38.57s-1-.19-1.38-.57-.57-.84-.57-1.38.19-1,.57-1.38.84-.57,1.38-.57,1,.19,1.38.57h0s0,0,0,0c.08.08.11.17.11.28s-.04.2-.11.27l-1.12,1.11c-.08.08-.17.11-.28.11s-.21-.04-.29-.11c-.08-.08-.11-.17-.11-.29s.04-.2.11-.28l.78-.78Z"/>
    <path class="cls-1" d="m11.84,68.74c0-.11.04-.2.12-.28s.17-.12.28-.12.2.04.28.12.12.17.12.28v1.15c.33-.25.72-.38,1.15-.38.54,0,1,.19,1.38.57s.57.84.57,1.38-.19,1-.57,1.38-.84.57-1.38.57-1-.19-1.38-.57c-.38-.38-.56-.83-.57-1.36v-2.74Zm1.13,3.54c.23.23.5.34.82.34s.59-.11.82-.34.34-.5.34-.82-.11-.59-.34-.82-.5-.34-.82-.34-.59.11-.82.34c-.19.19-.3.42-.33.68v.15s0,.05,0,.07c.02.29.13.53.34.74Z"/>
    <path class="cls-1" d="m18.86,71.45c0-.11.04-.2.11-.28s.17-.12.28-.12.2.04.28.12.12.17.12.28c0,.32.11.6.34.83s.5.34.83.34.6-.11.83-.34.34-.5.34-.83-.11-.6-.34-.83-.51-.34-.83-.34c-.34,0-.63-.12-.87-.36s-.36-.53-.36-.87.12-.63.36-.87.53-.36.87-.36c.31,0,.59.1.82.31.01.01.03.02.04.04.08.08.11.17.11.28s-.04.2-.12.28-.17.11-.28.11-.2-.04-.28-.11c-.01-.01-.02-.02-.03-.03h0c-.08-.06-.17-.09-.28-.09-.12,0-.23.04-.32.13s-.13.19-.13.32.04.23.13.32.19.13.32.13c.54,0,1,.19,1.38.57s.57.84.57,1.38-.19,1-.57,1.38-.84.57-1.38.57-1-.19-1.38-.57-.57-.84-.57-1.38Z"/>
    <path class="cls-1" d="m26.89,70.08c.38.38.57.84.57,1.38s-.19,1-.57,1.38c-.38.38-.84.57-1.38.57s-1-.19-1.38-.57-.57-.84-.57-1.38.19-1,.57-1.38.84-.57,1.38-.57,1,.19,1.38.57Zm-1.38.22c-.32,0-.59.11-.82.34s-.34.5-.34.82.11.59.34.82.5.34.82.34.59-.11.82-.34c.23-.23.34-.5.34-.82s-.11-.59-.34-.82c-.22-.23-.5-.34-.82-.34Z"/>
    <path class="cls-1" d="m28.93,68.47c.08.08.12.17.12.28v4.26c0,.11-.04.2-.12.28s-.17.12-.28.12-.2-.04-.28-.12-.12-.17-.12-.28v-4.26c0-.11.04-.2.12-.28s.17-.12.28-.12.2.04.28.12Z"/>
    <path class="cls-1" d="m31.75,73.41c-.55-.03-1-.22-1.36-.58-.38-.38-.57-.83-.57-1.36v-1.51c0-.15.04-.27.12-.34s.17-.12.28-.12.2.04.28.12.12.19.12.34v1.51s0,.05,0,.07c.02.29.13.53.34.74.23.23.5.34.82.34h.02c.32,0,.59-.11.82-.34.21-.21.32-.45.34-.74,0-.02,0-.05,0-.07v-1.51c0-.15.04-.26.12-.34s.17-.12.28-.12.2.04.28.12.12.19.12.34v1.51c0,.53-.2.98-.57,1.36-.35.35-.81.55-1.36.58h-.06Z"/>
    <path class="cls-1" d="m35.3,69.49v-.74c0-.11.04-.2.12-.28s.17-.12.28-.12.2.04.28.12.12.17.12.28v.74h.43c.11,0,.2.04.28.12s.12.17.12.28-.04.2-.12.28-.17.12-.28.12h-.43v2.72c0,.11-.04.2-.12.28s-.17.12-.28.12-.2-.04-.28-.12-.12-.17-.12-.28v-2.72h-.45c-.11,0-.2-.04-.28-.12s-.12-.17-.12-.28.04-.2.12-.28.17-.12.28-.12h.45Z"/>
    <path class="cls-1" d="m38.04,69.12c-.11,0-.2-.04-.28-.12s-.12-.17-.12-.28.04-.2.12-.28.17-.12.28-.12.2.04.28.12.12.17.12.28-.04.2-.12.28-.17.12-.28.12Zm0,4.29c-.11,0-.2-.04-.28-.12s-.12-.17-.12-.28v-3.12c0-.11.04-.2.12-.28s.17-.12.28-.12.2.04.28.12.12.17.12.28v3.12c0,.11-.04.2-.12.28s-.17.12-.28.12Z"/>
    <path class="cls-1" d="m42.54,70.08c.38.38.57.84.57,1.38s-.19,1-.57,1.38-.84.57-1.38.57-1-.19-1.38-.57-.57-.84-.57-1.38.19-1,.57-1.38.84-.57,1.38-.57,1,.19,1.38.57Zm-1.38.22c-.32,0-.59.11-.82.34s-.34.5-.34.82.11.59.34.82.5.34.82.34.59-.11.82-.34.34-.5.34-.82-.11-.59-.34-.82-.5-.34-.82-.34Z"/>
    <path class="cls-1" d="m45.89,69.5c.55.03,1,.22,1.36.58.38.38.57.83.57,1.36v1.51c0,.15-.04.27-.12.34s-.17.12-.28.12-.2-.04-.28-.12-.12-.19-.12-.34v-1.51s0-.05,0-.07c-.02-.29-.13-.53-.34-.74-.23-.23-.5-.34-.82-.34h-.02c-.32,0-.59.11-.82.34-.21.21-.32.45-.34.74,0,.02,0,.05,0,.07v1.51c0,.15-.04.26-.12.34s-.17.12-.28.12-.2-.04-.28-.12-.12-.19-.12-.34v-1.51c0-.53.2-.98.57-1.36.35-.35.81-.55,1.36-.58h.06Z"/>
    <path class="cls-1" d="m49.97,69.5c.11,0,.2.04.28.11s.11.17.11.28-.04.2-.11.28-.17.12-.28.12c-.05,0-.1.02-.14.06s-.06.08-.06.14.02.1.06.14.08.06.14.06c.38,0,.7.13.97.4s.4.59.4.97-.13.7-.4.97-.59.4-.97.4-.7-.13-.97-.4-.4-.59-.4-.97c0-.11.04-.2.12-.28s.17-.11.28-.11.2.04.28.11.11.17.11.28c0,.16.06.3.17.41s.25.17.41.17.3-.06.41-.17.17-.25.17-.41-.06-.3-.17-.41-.25-.17-.41-.17c-.27,0-.5-.1-.69-.29s-.29-.42-.29-.69.09-.5.29-.69.42-.29.69-.29Z"/>
  </g>
</svg>